<mxfile host="app.diagrams.net" agent="Mozilla/5.0 (Windows NT 10.0; Win64; x64) AppleWebKit/537.36 (KHTML, like Gecko) Chrome/130.0.0.0 Safari/537.36" version="24.8.3">
  <diagram name="Page-1" id="dfRyC7SVpAaJdiC86V7x">
    <mxGraphModel dx="1271" dy="819" grid="1" gridSize="10" guides="1" tooltips="1" connect="1" arrows="1" fold="1" page="1" pageScale="1" pageWidth="850" pageHeight="1100" math="0" shadow="0">
      <root>
        <mxCell id="0" />
        <mxCell id="1" parent="0" />
        <mxCell id="6p6UbaBZp5hG0BsvD7h_-8" value="" style="edgeStyle=orthogonalEdgeStyle;rounded=0;orthogonalLoop=1;jettySize=auto;html=1;entryX=0.5;entryY=0;entryDx=0;entryDy=0;exitX=0.544;exitY=1.009;exitDx=0;exitDy=0;exitPerimeter=0;" parent="1" source="6p6UbaBZp5hG0BsvD7h_-1" target="6p6UbaBZp5hG0BsvD7h_-5" edge="1">
          <mxGeometry relative="1" as="geometry">
            <mxPoint x="425" y="300" as="targetPoint" />
          </mxGeometry>
        </mxCell>
        <mxCell id="6p6UbaBZp5hG0BsvD7h_-12" value="" style="edgeStyle=orthogonalEdgeStyle;rounded=0;orthogonalLoop=1;jettySize=auto;html=1;entryX=0.5;entryY=0;entryDx=0;entryDy=0;exitX=0.5;exitY=1;exitDx=0;exitDy=0;" parent="1" source="6p6UbaBZp5hG0BsvD7h_-1" target="6p6UbaBZp5hG0BsvD7h_-10" edge="1">
          <mxGeometry relative="1" as="geometry">
            <mxPoint x="385.0344827586207" y="290" as="targetPoint" />
          </mxGeometry>
        </mxCell>
        <mxCell id="6p6UbaBZp5hG0BsvD7h_-1" value="Esperando seleccion" style="rounded=1;whiteSpace=wrap;html=1;labelBackgroundColor=none;" parent="1" vertex="1">
          <mxGeometry x="365" y="160" width="120" height="60" as="geometry" />
        </mxCell>
        <mxCell id="6p6UbaBZp5hG0BsvD7h_-3" value="" style="edgeStyle=orthogonalEdgeStyle;rounded=0;orthogonalLoop=1;jettySize=auto;html=1;" parent="1" source="6p6UbaBZp5hG0BsvD7h_-2" target="6p6UbaBZp5hG0BsvD7h_-1" edge="1">
          <mxGeometry relative="1" as="geometry" />
        </mxCell>
        <mxCell id="6p6UbaBZp5hG0BsvD7h_-2" value="" style="ellipse;whiteSpace=wrap;html=1;aspect=fixed;fillColor=#000000;" parent="1" vertex="1">
          <mxGeometry x="410" y="90" width="30" height="30" as="geometry" />
        </mxCell>
        <mxCell id="6p6UbaBZp5hG0BsvD7h_-4" value="&lt;div style=&quot;text-align: justify;&quot;&gt;&lt;span style=&quot;background-color: initial;&quot;&gt;Se presiona el boton &quot;ir a destino&quot; / El sistema visualiza&lt;/span&gt;&lt;/div&gt;&lt;div style=&quot;text-align: justify;&quot;&gt;&lt;span style=&quot;background-color: initial;&quot;&gt;las&lt;/span&gt;&lt;span style=&quot;background-color: initial;&quot;&gt;&amp;nbsp;opciones&amp;nbsp;&lt;/span&gt;&lt;span style=&quot;background-color: initial;&quot;&gt;&quot;Ultimos encontrados&quot; y &quot;Nuevo destino&quot;&lt;/span&gt;&lt;/div&gt;" style="text;html=1;align=center;verticalAlign=middle;resizable=0;points=[];autosize=1;strokeColor=none;fillColor=none;" parent="1" vertex="1">
          <mxGeometry x="440" y="85" width="320" height="40" as="geometry" />
        </mxCell>
        <mxCell id="6p6UbaBZp5hG0BsvD7h_-24" value="" style="edgeStyle=orthogonalEdgeStyle;rounded=0;orthogonalLoop=1;jettySize=auto;html=1;entryX=1;entryY=0.5;entryDx=0;entryDy=0;exitX=0.5;exitY=1;exitDx=0;exitDy=0;" parent="1" source="6p6UbaBZp5hG0BsvD7h_-5" target="6p6UbaBZp5hG0BsvD7h_-17" edge="1">
          <mxGeometry relative="1" as="geometry">
            <mxPoint x="770" y="410.0000000000001" as="targetPoint" />
          </mxGeometry>
        </mxCell>
        <mxCell id="6p6UbaBZp5hG0BsvD7h_-5" value="Esperando seleccion de ultimos encontrados" style="rounded=1;whiteSpace=wrap;html=1;labelBackgroundColor=none;" parent="1" vertex="1">
          <mxGeometry x="710" y="270" width="120" height="60" as="geometry" />
        </mxCell>
        <mxCell id="6p6UbaBZp5hG0BsvD7h_-9" value="&lt;div style=&quot;text-align: justify; font-size: 10px;&quot;&gt;Se presiona el boton &quot;Ultimos encontrados&quot; / Se muestra la lista&lt;/div&gt;&lt;div style=&quot;text-align: justify; font-size: 10px;&quot;&gt;de los ultimos 5 lugares buscados esperando la seleccion&lt;/div&gt;" style="text;html=1;align=center;verticalAlign=middle;resizable=0;points=[];autosize=1;strokeColor=none;fillColor=none;fontSize=10;" parent="1" vertex="1">
          <mxGeometry x="510" y="200" width="310" height="40" as="geometry" />
        </mxCell>
        <mxCell id="6p6UbaBZp5hG0BsvD7h_-15" value="" style="edgeStyle=orthogonalEdgeStyle;rounded=0;orthogonalLoop=1;jettySize=auto;html=1;" parent="1" source="6p6UbaBZp5hG0BsvD7h_-10" target="6p6UbaBZp5hG0BsvD7h_-14" edge="1">
          <mxGeometry relative="1" as="geometry" />
        </mxCell>
        <mxCell id="6p6UbaBZp5hG0BsvD7h_-10" value="Esperando ingreso de nuevo destino" style="rounded=1;whiteSpace=wrap;html=1;labelBackgroundColor=none;" parent="1" vertex="1">
          <mxGeometry x="70" y="270" width="120" height="60" as="geometry" />
        </mxCell>
        <mxCell id="6p6UbaBZp5hG0BsvD7h_-13" value="&lt;div style=&quot;text-align: justify; font-size: 10px;&quot;&gt;Se presiona el boton &quot;Nuevo destino&quot; / Se muestra un campo&lt;br style=&quot;font-size: 10px;&quot;&gt;&lt;/div&gt;&lt;div style=&quot;text-align: justify; font-size: 10px;&quot;&gt;para completar la calle del destino, se espera respuesta&lt;/div&gt;" style="text;html=1;align=center;verticalAlign=middle;resizable=0;points=[];autosize=1;strokeColor=none;fillColor=none;fontSize=10;" parent="1" vertex="1">
          <mxGeometry x="40" y="200" width="300" height="40" as="geometry" />
        </mxCell>
        <mxCell id="6p6UbaBZp5hG0BsvD7h_-19" value="" style="edgeStyle=orthogonalEdgeStyle;rounded=0;orthogonalLoop=1;jettySize=auto;html=1;entryX=0;entryY=0.5;entryDx=0;entryDy=0;" parent="1" source="6p6UbaBZp5hG0BsvD7h_-14" target="6p6UbaBZp5hG0BsvD7h_-17" edge="1">
          <mxGeometry relative="1" as="geometry">
            <mxPoint x="290" y="450" as="targetPoint" />
          </mxGeometry>
        </mxCell>
        <mxCell id="6p6UbaBZp5hG0BsvD7h_-14" value="Esperando ingreso de altura" style="rounded=1;whiteSpace=wrap;html=1;labelBackgroundColor=none;" parent="1" vertex="1">
          <mxGeometry x="70" y="420" width="120" height="60" as="geometry" />
        </mxCell>
        <mxCell id="6p6UbaBZp5hG0BsvD7h_-16" value="&lt;div style=&quot;font-size: 9px;&quot;&gt;Se presiona el&amp;nbsp;&lt;/div&gt;&lt;div style=&quot;font-size: 9px;&quot;&gt;boton &quot;Siguiente&quot; y&amp;nbsp;&lt;br style=&quot;font-size: 9px;&quot;&gt;&lt;/div&gt;&lt;div style=&quot;font-size: 9px;&quot;&gt;se ingresa la altura&lt;/div&gt;" style="text;html=1;align=right;verticalAlign=middle;resizable=0;points=[];autosize=1;strokeColor=none;fillColor=none;fontSize=9;" parent="1" vertex="1">
          <mxGeometry x="30" y="345" width="100" height="50" as="geometry" />
        </mxCell>
        <mxCell id="6p6UbaBZp5hG0BsvD7h_-30" value="" style="edgeStyle=orthogonalEdgeStyle;rounded=0;orthogonalLoop=1;jettySize=auto;html=1;" parent="1" source="6p6UbaBZp5hG0BsvD7h_-17" target="6p6UbaBZp5hG0BsvD7h_-29" edge="1">
          <mxGeometry relative="1" as="geometry" />
        </mxCell>
        <mxCell id="6p6UbaBZp5hG0BsvD7h_-17" value="Esperando confirmacion del viaje" style="rounded=1;whiteSpace=wrap;html=1;labelBackgroundColor=none;" parent="1" vertex="1">
          <mxGeometry x="365" y="420" width="120" height="60" as="geometry" />
        </mxCell>
        <mxCell id="6p6UbaBZp5hG0BsvD7h_-20" value="&lt;div style=&quot;text-align: justify; font-size: 7px;&quot;&gt;&lt;font style=&quot;font-size: 7px;&quot;&gt;Se presiona&amp;nbsp;&amp;nbsp;&lt;/font&gt;&lt;font style=&quot;background-color: initial;&quot;&gt;el&amp;nbsp;&lt;span style=&quot;background-color: initial;&quot;&gt;boton &quot;Confirmar&quot;&amp;nbsp;&lt;/span&gt;&lt;/font&gt;&lt;/div&gt;&lt;div style=&quot;text-align: justify; font-size: 7px;&quot;&gt;&lt;font style=&quot;background-color: initial;&quot;&gt;&lt;span style=&quot;background-color: initial;&quot;&gt;[El destino ingresado&amp;nbsp;&lt;/span&gt;&lt;/font&gt;&lt;span style=&quot;background-color: initial;&quot;&gt;es valido]&lt;/span&gt;&lt;/div&gt;" style="text;html=1;align=center;verticalAlign=middle;resizable=0;points=[];autosize=1;strokeColor=none;fillColor=none;fontSize=7;" parent="1" vertex="1">
          <mxGeometry x="210" y="420" width="130" height="30" as="geometry" />
        </mxCell>
        <mxCell id="6p6UbaBZp5hG0BsvD7h_-21" value="" style="endArrow=classic;html=1;rounded=0;exitX=0.75;exitY=0;exitDx=0;exitDy=0;" parent="1" source="6p6UbaBZp5hG0BsvD7h_-14" edge="1">
          <mxGeometry width="50" height="50" relative="1" as="geometry">
            <mxPoint x="260" y="440" as="sourcePoint" />
            <mxPoint x="391" y="220" as="targetPoint" />
            <Array as="points">
              <mxPoint x="160" y="340" />
              <mxPoint x="230" y="340" />
              <mxPoint x="390" y="340" />
            </Array>
          </mxGeometry>
        </mxCell>
        <mxCell id="6p6UbaBZp5hG0BsvD7h_-22" value="&lt;div style=&quot;text-align: justify; font-size: 7px;&quot;&gt;&lt;font style=&quot;font-size: 7px;&quot;&gt;Se presiona el&amp;nbsp;&lt;span style=&quot;background-color: initial; font-size: 7px;&quot;&gt;boton &quot;Confirmar&quot;&amp;nbsp;&lt;/span&gt;&lt;/font&gt;&lt;/div&gt;&lt;div style=&quot;text-align: justify; font-size: 7px;&quot;&gt;&lt;font style=&quot;font-size: 7px;&quot;&gt;&lt;span style=&quot;background-color: initial; font-size: 7px;&quot;&gt;[El destino ingresado NO&amp;nbsp;&lt;/span&gt;&lt;/font&gt;&lt;span style=&quot;background-color: initial;&quot;&gt;es valido] / Se&amp;nbsp;&lt;/span&gt;&lt;/div&gt;&lt;div style=&quot;text-align: justify; font-size: 7px;&quot;&gt;&lt;span style=&quot;background-color: initial;&quot;&gt;informa del error y vuelve a la busqueda&lt;/span&gt;&lt;/div&gt;" style="text;html=1;align=center;verticalAlign=middle;resizable=0;points=[];autosize=1;strokeColor=none;fillColor=none;fontSize=7;" parent="1" vertex="1">
          <mxGeometry x="240" y="300" width="150" height="40" as="geometry" />
        </mxCell>
        <mxCell id="6p6UbaBZp5hG0BsvD7h_-26" value="&lt;div style=&quot;text-align: justify; font-size: 9px;&quot;&gt;Se selecciona una direccion de la lista&amp;nbsp;&lt;/div&gt;" style="text;html=1;align=center;verticalAlign=middle;resizable=0;points=[];autosize=1;strokeColor=none;fillColor=none;fontSize=9;" parent="1" vertex="1">
          <mxGeometry x="580" y="425" width="180" height="20" as="geometry" />
        </mxCell>
        <mxCell id="6p6UbaBZp5hG0BsvD7h_-27" value="" style="endArrow=classic;html=1;rounded=0;exitX=0.75;exitY=0;exitDx=0;exitDy=0;entryX=0.75;entryY=1;entryDx=0;entryDy=0;" parent="1" source="6p6UbaBZp5hG0BsvD7h_-17" target="6p6UbaBZp5hG0BsvD7h_-1" edge="1">
          <mxGeometry width="50" height="50" relative="1" as="geometry">
            <mxPoint x="480" y="480" as="sourcePoint" />
            <mxPoint x="530" y="430" as="targetPoint" />
          </mxGeometry>
        </mxCell>
        <mxCell id="6p6UbaBZp5hG0BsvD7h_-28" value="&lt;div style=&quot;text-align: justify; font-size: 7px;&quot;&gt;&lt;font style=&quot;font-size: 7px;&quot;&gt;Se presiona el&amp;nbsp;&lt;span style=&quot;background-color: initial; font-size: 7px;&quot;&gt;boton &quot;Cancelar&quot;&lt;/span&gt;&lt;/font&gt;&lt;/div&gt;" style="text;html=1;align=center;verticalAlign=middle;resizable=0;points=[];autosize=1;strokeColor=none;fillColor=none;fontSize=7;" parent="1" vertex="1">
          <mxGeometry x="340" y="370" width="120" height="20" as="geometry" />
        </mxCell>
        <mxCell id="6p6UbaBZp5hG0BsvD7h_-47" value="" style="edgeStyle=orthogonalEdgeStyle;rounded=0;orthogonalLoop=1;jettySize=auto;html=1;entryX=0.5;entryY=0;entryDx=0;entryDy=0;" parent="1" source="6p6UbaBZp5hG0BsvD7h_-29" target="6p6UbaBZp5hG0BsvD7h_-45" edge="1">
          <mxGeometry relative="1" as="geometry" />
        </mxCell>
        <mxCell id="6p6UbaBZp5hG0BsvD7h_-29" value="Navegando" style="rounded=1;whiteSpace=wrap;html=1;labelBackgroundColor=none;" parent="1" vertex="1">
          <mxGeometry x="365" y="560" width="120" height="60" as="geometry" />
        </mxCell>
        <mxCell id="6p6UbaBZp5hG0BsvD7h_-31" value="&lt;div style=&quot;font-size: 9px;&quot;&gt;&lt;font style=&quot;font-size: 9px;&quot;&gt;Se presiona el&amp;nbsp;&lt;span style=&quot;background-color: initial; font-size: 9px;&quot;&gt;boton &quot;Ir&quot; / Se inicia el viaje&lt;/span&gt;&lt;/font&gt;&lt;/div&gt;&lt;div style=&quot;font-size: 9px;&quot;&gt;&lt;font style=&quot;font-size: 9px;&quot;&gt;&lt;span style=&quot;background-color: initial; font-size: 9px;&quot;&gt;al destino ingresado&lt;/span&gt;&lt;/font&gt;&lt;/div&gt;" style="text;html=1;align=right;verticalAlign=middle;resizable=0;points=[];autosize=1;strokeColor=none;fillColor=none;fontSize=9;" parent="1" vertex="1">
          <mxGeometry x="230" y="490" width="190" height="40" as="geometry" />
        </mxCell>
        <mxCell id="6p6UbaBZp5hG0BsvD7h_-32" value="Esperando señal" style="rounded=1;whiteSpace=wrap;html=1;labelBackgroundColor=none;" parent="1" vertex="1">
          <mxGeometry x="605" y="560" width="120" height="60" as="geometry" />
        </mxCell>
        <mxCell id="6p6UbaBZp5hG0BsvD7h_-33" value="" style="endArrow=classic;html=1;rounded=0;exitX=1;exitY=0.25;exitDx=0;exitDy=0;entryX=0;entryY=0.25;entryDx=0;entryDy=0;" parent="1" source="6p6UbaBZp5hG0BsvD7h_-29" target="6p6UbaBZp5hG0BsvD7h_-32" edge="1">
          <mxGeometry width="50" height="50" relative="1" as="geometry">
            <mxPoint x="410" y="490" as="sourcePoint" />
            <mxPoint x="460" y="440" as="targetPoint" />
          </mxGeometry>
        </mxCell>
        <mxCell id="6p6UbaBZp5hG0BsvD7h_-34" value="" style="endArrow=classic;html=1;rounded=0;exitX=0;exitY=0.75;exitDx=0;exitDy=0;entryX=1;entryY=0.75;entryDx=0;entryDy=0;" parent="1" source="6p6UbaBZp5hG0BsvD7h_-32" target="6p6UbaBZp5hG0BsvD7h_-29" edge="1">
          <mxGeometry width="50" height="50" relative="1" as="geometry">
            <mxPoint x="410" y="490" as="sourcePoint" />
            <mxPoint x="460" y="440" as="targetPoint" />
          </mxGeometry>
        </mxCell>
        <mxCell id="6p6UbaBZp5hG0BsvD7h_-35" value="&lt;div style=&quot;font-size: 6px;&quot;&gt;&lt;font style=&quot;font-size: 6px;&quot;&gt;&lt;span style=&quot;background-color: initial; font-size: 6px;&quot;&gt;Pasa un segundo en el timer [La señal se pierde]&lt;/span&gt;&lt;span style=&quot;background-color: initial; font-size: 6px;&quot;&gt;&amp;nbsp;/&amp;nbsp;&lt;/span&gt;&lt;/font&gt;&lt;/div&gt;&lt;div style=&quot;font-size: 6px;&quot;&gt;&lt;span style=&quot;background-color: initial; font-size: 6px;&quot;&gt;&lt;font style=&quot;font-size: 6px;&quot;&gt;Se inicia un timer en 0 en espera de señal&lt;/font&gt;&lt;/span&gt;&lt;/div&gt;" style="text;html=1;align=center;verticalAlign=middle;resizable=0;points=[];autosize=1;strokeColor=none;fillColor=none;fontSize=6;" parent="1" vertex="1">
          <mxGeometry x="465" y="545" width="160" height="30" as="geometry" />
        </mxCell>
        <mxCell id="6p6UbaBZp5hG0BsvD7h_-36" value="&lt;div style=&quot;font-size: 7px;&quot;&gt;Se recupera la señal / Se retoma&lt;/div&gt;&lt;div style=&quot;font-size: 7px;&quot;&gt;la navegacion&lt;/div&gt;" style="text;html=1;align=center;verticalAlign=middle;resizable=0;points=[];autosize=1;strokeColor=none;fillColor=none;fontSize=7;" parent="1" vertex="1">
          <mxGeometry x="480" y="605" width="130" height="30" as="geometry" />
        </mxCell>
        <mxCell id="6p6UbaBZp5hG0BsvD7h_-37" value="" style="endArrow=classic;html=1;rounded=0;exitX=1;exitY=0.75;exitDx=0;exitDy=0;entryX=1;entryY=0.25;entryDx=0;entryDy=0;" parent="1" source="6p6UbaBZp5hG0BsvD7h_-32" target="6p6UbaBZp5hG0BsvD7h_-32" edge="1">
          <mxGeometry width="50" height="50" relative="1" as="geometry">
            <mxPoint x="530" y="580" as="sourcePoint" />
            <mxPoint x="580" y="530" as="targetPoint" />
            <Array as="points">
              <mxPoint x="750" y="590" />
            </Array>
          </mxGeometry>
        </mxCell>
        <mxCell id="6p6UbaBZp5hG0BsvD7h_-38" value="&lt;div style=&quot;font-size: 6px;&quot;&gt;El timer aumenta en 1 segundo&amp;nbsp;&lt;/div&gt;&lt;div style=&quot;font-size: 6px;&quot;&gt;[El timer no llego a los 3 min y aun&lt;/div&gt;&lt;div style=&quot;font-size: 6px;&quot;&gt;no volvio la señal] / Sigue esperando&lt;/div&gt;&lt;div style=&quot;font-size: 6px;&quot;&gt;la señal de GPS&lt;/div&gt;" style="text;html=1;align=center;verticalAlign=middle;resizable=0;points=[];autosize=1;strokeColor=none;fillColor=none;fontSize=6;" parent="1" vertex="1">
          <mxGeometry x="725" y="595" width="120" height="40" as="geometry" />
        </mxCell>
        <mxCell id="6p6UbaBZp5hG0BsvD7h_-39" value="&lt;div style=&quot;font-size: 6px;&quot;&gt;El timer aumenta en 1 segundo&lt;/div&gt;&lt;div style=&quot;font-size: 6px;&quot;&gt;[El timer llego a los 3 min y aun&lt;/div&gt;&lt;div style=&quot;font-size: 6px;&quot;&gt;no volvio la señal] / Vuelve a la&amp;nbsp;&lt;/div&gt;&lt;div style=&quot;font-size: 6px;&quot;&gt;pantalla de busqueda&lt;/div&gt;" style="text;html=1;align=center;verticalAlign=middle;resizable=0;points=[];autosize=1;strokeColor=none;fillColor=none;fontSize=6;" parent="1" vertex="1">
          <mxGeometry x="630" y="510" width="110" height="40" as="geometry" />
        </mxCell>
        <mxCell id="6p6UbaBZp5hG0BsvD7h_-40" value="" style="endArrow=classic;html=1;rounded=0;exitX=0.5;exitY=0;exitDx=0;exitDy=0;entryX=0.873;entryY=1.006;entryDx=0;entryDy=0;entryPerimeter=0;" parent="1" source="6p6UbaBZp5hG0BsvD7h_-32" target="6p6UbaBZp5hG0BsvD7h_-1" edge="1">
          <mxGeometry width="50" height="50" relative="1" as="geometry">
            <mxPoint x="550" y="550" as="sourcePoint" />
            <mxPoint x="550" y="410" as="targetPoint" />
            <Array as="points">
              <mxPoint x="470" y="360" />
            </Array>
          </mxGeometry>
        </mxCell>
        <mxCell id="6p6UbaBZp5hG0BsvD7h_-42" value="" style="endArrow=classic;html=1;rounded=0;exitX=0;exitY=0.25;exitDx=0;exitDy=0;entryX=0;entryY=0.75;entryDx=0;entryDy=0;" parent="1" source="6p6UbaBZp5hG0BsvD7h_-29" target="6p6UbaBZp5hG0BsvD7h_-29" edge="1">
          <mxGeometry width="50" height="50" relative="1" as="geometry">
            <mxPoint x="410" y="530" as="sourcePoint" />
            <mxPoint x="310" y="590" as="targetPoint" />
            <Array as="points">
              <mxPoint x="340" y="590" />
            </Array>
          </mxGeometry>
        </mxCell>
        <mxCell id="6p6UbaBZp5hG0BsvD7h_-43" value="&lt;div style=&quot;font-size: 6px;&quot;&gt;&lt;span style=&quot;background-color: initial;&quot;&gt;Pasa un segundo en el timer [La señal es estable]&lt;/span&gt;&lt;/div&gt;&lt;div style=&quot;font-size: 6px;&quot;&gt;&lt;span style=&quot;background-color: initial;&quot;&gt;/ Se actualiza&amp;nbsp;&lt;/span&gt;&lt;span style=&quot;background-color: initial;&quot;&gt;la ubicacion geografica&lt;/span&gt;&lt;/div&gt;" style="text;html=1;align=center;verticalAlign=middle;resizable=0;points=[];autosize=1;strokeColor=none;fillColor=none;fontSize=6;" parent="1" vertex="1">
          <mxGeometry x="195" y="575" width="160" height="30" as="geometry" />
        </mxCell>
        <mxCell id="6p6UbaBZp5hG0BsvD7h_-45" value="" style="ellipse;whiteSpace=wrap;html=1;aspect=fixed;" parent="1" vertex="1">
          <mxGeometry x="413" y="690" width="25" height="25" as="geometry" />
        </mxCell>
        <mxCell id="6p6UbaBZp5hG0BsvD7h_-46" value="" style="ellipse;whiteSpace=wrap;html=1;aspect=fixed;fillColor=#000000;" parent="1" vertex="1">
          <mxGeometry x="420" y="697.5" width="10" height="10" as="geometry" />
        </mxCell>
        <mxCell id="6p6UbaBZp5hG0BsvD7h_-48" value="&lt;div style=&quot;font-size: 7px;&quot;&gt;Se termina la navegacion / Se&lt;/div&gt;&lt;div style=&quot;font-size: 7px;&quot;&gt;muestra un mensaje de &quot;destino alcanzado&quot;&lt;/div&gt;" style="text;html=1;align=center;verticalAlign=middle;resizable=0;points=[];autosize=1;strokeColor=none;fillColor=none;fontSize=7;" parent="1" vertex="1">
          <mxGeometry x="270" y="640" width="160" height="30" as="geometry" />
        </mxCell>
        <mxCell id="6p6UbaBZp5hG0BsvD7h_-49" value="" style="endArrow=classic;html=1;rounded=0;exitX=0.75;exitY=0;exitDx=0;exitDy=0;entryX=0.957;entryY=1.048;entryDx=0;entryDy=0;entryPerimeter=0;" parent="1" source="6p6UbaBZp5hG0BsvD7h_-29" target="6p6UbaBZp5hG0BsvD7h_-1" edge="1">
          <mxGeometry width="50" height="50" relative="1" as="geometry">
            <mxPoint x="510" y="420" as="sourcePoint" />
            <mxPoint x="560" y="370" as="targetPoint" />
            <Array as="points">
              <mxPoint x="590" y="360" />
              <mxPoint x="480" y="360" />
            </Array>
          </mxGeometry>
        </mxCell>
        <mxCell id="6p6UbaBZp5hG0BsvD7h_-50" value="&lt;div style=&quot;font-size: 5px;&quot;&gt;&lt;font style=&quot;font-size: 5px;&quot;&gt;&lt;span style=&quot;background-color: initial; font-size: 5px;&quot;&gt;Se presiona el boton &quot;Detener navegacion&quot;&lt;/span&gt;&lt;span style=&quot;background-color: initial; font-size: 5px;&quot;&gt;&amp;nbsp;/&amp;nbsp;&lt;/span&gt;&lt;/font&gt;&lt;/div&gt;&lt;div style=&quot;font-size: 5px;&quot;&gt;Retorna a la opcion &quot;ir a destino&quot;&lt;/div&gt;" style="text;html=1;align=left;verticalAlign=middle;resizable=0;points=[];autosize=1;strokeColor=none;fillColor=none;fontSize=5;" parent="1" vertex="1">
          <mxGeometry x="490" y="500" width="120" height="30" as="geometry" />
        </mxCell>
        <mxCell id="QrMQn8Wq6MuRv5G-C4Zi-1" value="" style="edgeStyle=orthogonalEdgeStyle;rounded=0;orthogonalLoop=1;jettySize=auto;html=1;entryX=0.5;entryY=0;entryDx=0;entryDy=0;exitX=0.544;exitY=1.009;exitDx=0;exitDy=0;exitPerimeter=0;" parent="1" source="QrMQn8Wq6MuRv5G-C4Zi-3" target="QrMQn8Wq6MuRv5G-C4Zi-8" edge="1">
          <mxGeometry relative="1" as="geometry">
            <mxPoint x="425" y="300" as="targetPoint" />
          </mxGeometry>
        </mxCell>
        <mxCell id="QrMQn8Wq6MuRv5G-C4Zi-2" value="" style="edgeStyle=orthogonalEdgeStyle;rounded=0;orthogonalLoop=1;jettySize=auto;html=1;entryX=0.5;entryY=0;entryDx=0;entryDy=0;exitX=0.5;exitY=1;exitDx=0;exitDy=0;" parent="1" source="QrMQn8Wq6MuRv5G-C4Zi-3" target="QrMQn8Wq6MuRv5G-C4Zi-11" edge="1">
          <mxGeometry relative="1" as="geometry">
            <mxPoint x="385.0344827586207" y="290" as="targetPoint" />
          </mxGeometry>
        </mxCell>
        <mxCell id="QrMQn8Wq6MuRv5G-C4Zi-3" value="Esperando seleccion" style="rounded=1;whiteSpace=wrap;html=1;labelBackgroundColor=none;" parent="1" vertex="1">
          <mxGeometry x="365" y="160" width="120" height="60" as="geometry" />
        </mxCell>
        <mxCell id="QrMQn8Wq6MuRv5G-C4Zi-4" value="" style="edgeStyle=orthogonalEdgeStyle;rounded=0;orthogonalLoop=1;jettySize=auto;html=1;" parent="1" source="QrMQn8Wq6MuRv5G-C4Zi-5" target="QrMQn8Wq6MuRv5G-C4Zi-3" edge="1">
          <mxGeometry relative="1" as="geometry" />
        </mxCell>
        <mxCell id="QrMQn8Wq6MuRv5G-C4Zi-5" value="" style="ellipse;whiteSpace=wrap;html=1;aspect=fixed;fillColor=#000000;" parent="1" vertex="1">
          <mxGeometry x="410" y="90" width="30" height="30" as="geometry" />
        </mxCell>
        <mxCell id="QrMQn8Wq6MuRv5G-C4Zi-6" value="&lt;div style=&quot;text-align: justify;&quot;&gt;&lt;span style=&quot;background-color: initial;&quot;&gt;Se presiona el boton &quot;ir a destino&quot; / El sistema visualiza&lt;/span&gt;&lt;/div&gt;&lt;div style=&quot;text-align: justify;&quot;&gt;&lt;span style=&quot;background-color: initial;&quot;&gt;las&lt;/span&gt;&lt;span style=&quot;background-color: initial;&quot;&gt;&amp;nbsp;opciones&amp;nbsp;&lt;/span&gt;&lt;span style=&quot;background-color: initial;&quot;&gt;&quot;Ultimos encontrados&quot; y &quot;Nuevo destino&quot;&lt;/span&gt;&lt;/div&gt;" style="text;html=1;align=center;verticalAlign=middle;resizable=0;points=[];autosize=1;strokeColor=none;fillColor=none;" parent="1" vertex="1">
          <mxGeometry x="440" y="85" width="320" height="40" as="geometry" />
        </mxCell>
        <mxCell id="QrMQn8Wq6MuRv5G-C4Zi-7" value="" style="edgeStyle=orthogonalEdgeStyle;rounded=0;orthogonalLoop=1;jettySize=auto;html=1;entryX=1;entryY=0.5;entryDx=0;entryDy=0;exitX=0.5;exitY=1;exitDx=0;exitDy=0;" parent="1" source="QrMQn8Wq6MuRv5G-C4Zi-8" target="QrMQn8Wq6MuRv5G-C4Zi-17" edge="1">
          <mxGeometry relative="1" as="geometry">
            <mxPoint x="770" y="410.0000000000001" as="targetPoint" />
          </mxGeometry>
        </mxCell>
        <mxCell id="QrMQn8Wq6MuRv5G-C4Zi-8" value="Esperando seleccion de ultimos encontrados" style="rounded=1;whiteSpace=wrap;html=1;labelBackgroundColor=none;" parent="1" vertex="1">
          <mxGeometry x="710" y="270" width="120" height="60" as="geometry" />
        </mxCell>
        <mxCell id="QrMQn8Wq6MuRv5G-C4Zi-9" value="&lt;div style=&quot;text-align: justify; font-size: 10px;&quot;&gt;Se presiona el boton &quot;Ultimos encontrados&quot; / Se muestra la lista&lt;/div&gt;&lt;div style=&quot;text-align: justify; font-size: 10px;&quot;&gt;de los ultimos 5 lugares buscados esperando la seleccion&lt;/div&gt;" style="text;html=1;align=center;verticalAlign=middle;resizable=0;points=[];autosize=1;strokeColor=none;fillColor=none;fontSize=10;" parent="1" vertex="1">
          <mxGeometry x="510" y="200" width="310" height="40" as="geometry" />
        </mxCell>
        <mxCell id="QrMQn8Wq6MuRv5G-C4Zi-10" value="" style="edgeStyle=orthogonalEdgeStyle;rounded=0;orthogonalLoop=1;jettySize=auto;html=1;" parent="1" source="QrMQn8Wq6MuRv5G-C4Zi-11" target="QrMQn8Wq6MuRv5G-C4Zi-14" edge="1">
          <mxGeometry relative="1" as="geometry" />
        </mxCell>
        <mxCell id="QrMQn8Wq6MuRv5G-C4Zi-11" value="Esperando ingreso de nuevo destino" style="rounded=1;whiteSpace=wrap;html=1;labelBackgroundColor=none;" parent="1" vertex="1">
          <mxGeometry x="70" y="270" width="120" height="60" as="geometry" />
        </mxCell>
        <mxCell id="QrMQn8Wq6MuRv5G-C4Zi-12" value="&lt;div style=&quot;text-align: justify; font-size: 10px;&quot;&gt;Se presiona el boton &quot;Nuevo destino&quot; / Se muestra un campo&lt;br style=&quot;font-size: 10px;&quot;&gt;&lt;/div&gt;&lt;div style=&quot;text-align: justify; font-size: 10px;&quot;&gt;para completar la calle del destino, se espera respuesta&lt;/div&gt;" style="text;html=1;align=center;verticalAlign=middle;resizable=0;points=[];autosize=1;strokeColor=none;fillColor=none;fontSize=10;" parent="1" vertex="1">
          <mxGeometry x="40" y="200" width="300" height="40" as="geometry" />
        </mxCell>
        <mxCell id="QrMQn8Wq6MuRv5G-C4Zi-13" value="" style="edgeStyle=orthogonalEdgeStyle;rounded=0;orthogonalLoop=1;jettySize=auto;html=1;entryX=0;entryY=0.5;entryDx=0;entryDy=0;" parent="1" source="QrMQn8Wq6MuRv5G-C4Zi-14" target="QrMQn8Wq6MuRv5G-C4Zi-17" edge="1">
          <mxGeometry relative="1" as="geometry">
            <mxPoint x="290" y="450" as="targetPoint" />
          </mxGeometry>
        </mxCell>
        <mxCell id="QrMQn8Wq6MuRv5G-C4Zi-14" value="Esperando ingreso de altura" style="rounded=1;whiteSpace=wrap;html=1;labelBackgroundColor=none;" parent="1" vertex="1">
          <mxGeometry x="70" y="420" width="120" height="60" as="geometry" />
        </mxCell>
        <mxCell id="QrMQn8Wq6MuRv5G-C4Zi-15" value="&lt;div style=&quot;font-size: 9px;&quot;&gt;Se presiona el&amp;nbsp;&lt;/div&gt;&lt;div style=&quot;font-size: 9px;&quot;&gt;boton &quot;Siguiente&quot; y&amp;nbsp;&lt;br style=&quot;font-size: 9px;&quot;&gt;&lt;/div&gt;&lt;div style=&quot;font-size: 9px;&quot;&gt;se ingresa la altura&lt;/div&gt;" style="text;html=1;align=right;verticalAlign=middle;resizable=0;points=[];autosize=1;strokeColor=none;fillColor=none;fontSize=9;" parent="1" vertex="1">
          <mxGeometry x="30" y="345" width="100" height="50" as="geometry" />
        </mxCell>
        <mxCell id="QrMQn8Wq6MuRv5G-C4Zi-16" value="" style="edgeStyle=orthogonalEdgeStyle;rounded=0;orthogonalLoop=1;jettySize=auto;html=1;" parent="1" source="QrMQn8Wq6MuRv5G-C4Zi-17" target="QrMQn8Wq6MuRv5G-C4Zi-25" edge="1">
          <mxGeometry relative="1" as="geometry" />
        </mxCell>
        <mxCell id="QrMQn8Wq6MuRv5G-C4Zi-17" value="Esperando confirmacion del viaje" style="rounded=1;whiteSpace=wrap;html=1;labelBackgroundColor=none;" parent="1" vertex="1">
          <mxGeometry x="365" y="420" width="120" height="60" as="geometry" />
        </mxCell>
        <mxCell id="QrMQn8Wq6MuRv5G-C4Zi-18" value="&lt;div style=&quot;text-align: justify; font-size: 7px;&quot;&gt;&lt;font style=&quot;font-size: 7px;&quot;&gt;Se presiona&amp;nbsp;&amp;nbsp;&lt;/font&gt;&lt;font style=&quot;background-color: initial;&quot;&gt;el&amp;nbsp;&lt;span style=&quot;background-color: initial;&quot;&gt;boton &quot;Confirmar&quot;&amp;nbsp;&lt;/span&gt;&lt;/font&gt;&lt;/div&gt;&lt;div style=&quot;text-align: justify; font-size: 7px;&quot;&gt;&lt;font style=&quot;background-color: initial;&quot;&gt;&lt;span style=&quot;background-color: initial;&quot;&gt;[El destino ingresado&amp;nbsp;&lt;/span&gt;&lt;/font&gt;&lt;span style=&quot;background-color: initial;&quot;&gt;es valido]&lt;/span&gt;&lt;/div&gt;" style="text;html=1;align=center;verticalAlign=middle;resizable=0;points=[];autosize=1;strokeColor=none;fillColor=none;fontSize=7;" parent="1" vertex="1">
          <mxGeometry x="210" y="420" width="130" height="30" as="geometry" />
        </mxCell>
        <mxCell id="QrMQn8Wq6MuRv5G-C4Zi-19" value="" style="endArrow=classic;html=1;rounded=0;exitX=0.75;exitY=0;exitDx=0;exitDy=0;" parent="1" source="QrMQn8Wq6MuRv5G-C4Zi-14" edge="1">
          <mxGeometry width="50" height="50" relative="1" as="geometry">
            <mxPoint x="260" y="440" as="sourcePoint" />
            <mxPoint x="391" y="220" as="targetPoint" />
            <Array as="points">
              <mxPoint x="160" y="340" />
              <mxPoint x="230" y="340" />
              <mxPoint x="390" y="340" />
            </Array>
          </mxGeometry>
        </mxCell>
        <mxCell id="QrMQn8Wq6MuRv5G-C4Zi-20" value="&lt;div style=&quot;text-align: justify; font-size: 7px;&quot;&gt;&lt;font style=&quot;font-size: 7px;&quot;&gt;Se presiona el&amp;nbsp;&lt;span style=&quot;background-color: initial; font-size: 7px;&quot;&gt;boton &quot;Confirmar&quot;&amp;nbsp;&lt;/span&gt;&lt;/font&gt;&lt;/div&gt;&lt;div style=&quot;text-align: justify; font-size: 7px;&quot;&gt;&lt;font style=&quot;font-size: 7px;&quot;&gt;&lt;span style=&quot;background-color: initial; font-size: 7px;&quot;&gt;[El destino ingresado NO&amp;nbsp;&lt;/span&gt;&lt;/font&gt;&lt;span style=&quot;background-color: initial;&quot;&gt;es valido] / Se&amp;nbsp;&lt;/span&gt;&lt;/div&gt;&lt;div style=&quot;text-align: justify; font-size: 7px;&quot;&gt;&lt;span style=&quot;background-color: initial;&quot;&gt;informa del error y vuelve a la busqueda&lt;/span&gt;&lt;/div&gt;" style="text;html=1;align=center;verticalAlign=middle;resizable=0;points=[];autosize=1;strokeColor=none;fillColor=none;fontSize=7;" parent="1" vertex="1">
          <mxGeometry x="240" y="300" width="150" height="40" as="geometry" />
        </mxCell>
        <mxCell id="QrMQn8Wq6MuRv5G-C4Zi-21" value="&lt;div style=&quot;text-align: justify; font-size: 9px;&quot;&gt;Se selecciona una direccion de la lista&amp;nbsp;&lt;/div&gt;" style="text;html=1;align=center;verticalAlign=middle;resizable=0;points=[];autosize=1;strokeColor=none;fillColor=none;fontSize=9;" parent="1" vertex="1">
          <mxGeometry x="580" y="425" width="180" height="20" as="geometry" />
        </mxCell>
        <mxCell id="QrMQn8Wq6MuRv5G-C4Zi-22" value="" style="endArrow=classic;html=1;rounded=0;exitX=0.75;exitY=0;exitDx=0;exitDy=0;entryX=0.75;entryY=1;entryDx=0;entryDy=0;" parent="1" source="QrMQn8Wq6MuRv5G-C4Zi-17" target="QrMQn8Wq6MuRv5G-C4Zi-3" edge="1">
          <mxGeometry width="50" height="50" relative="1" as="geometry">
            <mxPoint x="480" y="480" as="sourcePoint" />
            <mxPoint x="530" y="430" as="targetPoint" />
          </mxGeometry>
        </mxCell>
        <mxCell id="QrMQn8Wq6MuRv5G-C4Zi-23" value="&lt;div style=&quot;text-align: justify; font-size: 7px;&quot;&gt;&lt;font style=&quot;font-size: 7px;&quot;&gt;Se presiona el&amp;nbsp;&lt;span style=&quot;background-color: initial; font-size: 7px;&quot;&gt;boton &quot;Cancelar&quot;&lt;/span&gt;&lt;/font&gt;&lt;/div&gt;" style="text;html=1;align=center;verticalAlign=middle;resizable=0;points=[];autosize=1;strokeColor=none;fillColor=none;fontSize=7;" parent="1" vertex="1">
          <mxGeometry x="340" y="370" width="120" height="20" as="geometry" />
        </mxCell>
        <mxCell id="QrMQn8Wq6MuRv5G-C4Zi-24" value="" style="edgeStyle=orthogonalEdgeStyle;rounded=0;orthogonalLoop=1;jettySize=auto;html=1;entryX=0.5;entryY=0;entryDx=0;entryDy=0;" parent="1" source="QrMQn8Wq6MuRv5G-C4Zi-25" target="QrMQn8Wq6MuRv5G-C4Zi-38" edge="1">
          <mxGeometry relative="1" as="geometry" />
        </mxCell>
        <mxCell id="QrMQn8Wq6MuRv5G-C4Zi-25" value="Navegando" style="rounded=1;whiteSpace=wrap;html=1;labelBackgroundColor=none;" parent="1" vertex="1">
          <mxGeometry x="365" y="560" width="120" height="60" as="geometry" />
        </mxCell>
        <mxCell id="QrMQn8Wq6MuRv5G-C4Zi-26" value="&lt;div style=&quot;font-size: 9px;&quot;&gt;&lt;font style=&quot;font-size: 9px;&quot;&gt;Se presiona el&amp;nbsp;&lt;span style=&quot;background-color: initial; font-size: 9px;&quot;&gt;boton &quot;Ir&quot; / Se inicia el viaje&lt;/span&gt;&lt;/font&gt;&lt;/div&gt;&lt;div style=&quot;font-size: 9px;&quot;&gt;&lt;font style=&quot;font-size: 9px;&quot;&gt;&lt;span style=&quot;background-color: initial; font-size: 9px;&quot;&gt;al destino ingresado&lt;/span&gt;&lt;/font&gt;&lt;/div&gt;" style="text;html=1;align=right;verticalAlign=middle;resizable=0;points=[];autosize=1;strokeColor=none;fillColor=none;fontSize=9;" parent="1" vertex="1">
          <mxGeometry x="230" y="490" width="190" height="40" as="geometry" />
        </mxCell>
        <mxCell id="QrMQn8Wq6MuRv5G-C4Zi-27" value="Esperando señal" style="rounded=1;whiteSpace=wrap;html=1;labelBackgroundColor=none;" parent="1" vertex="1">
          <mxGeometry x="605" y="560" width="120" height="60" as="geometry" />
        </mxCell>
        <mxCell id="QrMQn8Wq6MuRv5G-C4Zi-28" value="" style="endArrow=classic;html=1;rounded=0;exitX=1;exitY=0.25;exitDx=0;exitDy=0;entryX=0;entryY=0.25;entryDx=0;entryDy=0;" parent="1" source="QrMQn8Wq6MuRv5G-C4Zi-25" target="QrMQn8Wq6MuRv5G-C4Zi-27" edge="1">
          <mxGeometry width="50" height="50" relative="1" as="geometry">
            <mxPoint x="410" y="490" as="sourcePoint" />
            <mxPoint x="460" y="440" as="targetPoint" />
          </mxGeometry>
        </mxCell>
        <mxCell id="QrMQn8Wq6MuRv5G-C4Zi-29" value="" style="endArrow=classic;html=1;rounded=0;exitX=0;exitY=0.75;exitDx=0;exitDy=0;entryX=1;entryY=0.75;entryDx=0;entryDy=0;" parent="1" source="QrMQn8Wq6MuRv5G-C4Zi-27" target="QrMQn8Wq6MuRv5G-C4Zi-25" edge="1">
          <mxGeometry width="50" height="50" relative="1" as="geometry">
            <mxPoint x="410" y="490" as="sourcePoint" />
            <mxPoint x="460" y="440" as="targetPoint" />
          </mxGeometry>
        </mxCell>
        <mxCell id="QrMQn8Wq6MuRv5G-C4Zi-30" value="&lt;div style=&quot;font-size: 6px;&quot;&gt;&lt;font style=&quot;font-size: 6px;&quot;&gt;&lt;span style=&quot;background-color: initial; font-size: 6px;&quot;&gt;Pasa un segundo en el timer [La señal se pierde]&lt;/span&gt;&lt;span style=&quot;background-color: initial; font-size: 6px;&quot;&gt;&amp;nbsp;/&amp;nbsp;&lt;/span&gt;&lt;/font&gt;&lt;/div&gt;&lt;div style=&quot;font-size: 6px;&quot;&gt;&lt;span style=&quot;background-color: initial; font-size: 6px;&quot;&gt;&lt;font style=&quot;font-size: 6px;&quot;&gt;Se inicia un timer en 0 en espera de señal&lt;/font&gt;&lt;/span&gt;&lt;/div&gt;" style="text;html=1;align=center;verticalAlign=middle;resizable=0;points=[];autosize=1;strokeColor=none;fillColor=none;fontSize=6;" parent="1" vertex="1">
          <mxGeometry x="465" y="545" width="160" height="30" as="geometry" />
        </mxCell>
        <mxCell id="QrMQn8Wq6MuRv5G-C4Zi-31" value="&lt;div style=&quot;font-size: 7px;&quot;&gt;Se recupera la señal / Se retoma&lt;/div&gt;&lt;div style=&quot;font-size: 7px;&quot;&gt;la navegacion&lt;/div&gt;" style="text;html=1;align=center;verticalAlign=middle;resizable=0;points=[];autosize=1;strokeColor=none;fillColor=none;fontSize=7;" parent="1" vertex="1">
          <mxGeometry x="480" y="605" width="130" height="30" as="geometry" />
        </mxCell>
        <mxCell id="QrMQn8Wq6MuRv5G-C4Zi-32" value="" style="endArrow=classic;html=1;rounded=0;exitX=1;exitY=0.75;exitDx=0;exitDy=0;entryX=1;entryY=0.25;entryDx=0;entryDy=0;" parent="1" source="QrMQn8Wq6MuRv5G-C4Zi-27" target="QrMQn8Wq6MuRv5G-C4Zi-27" edge="1">
          <mxGeometry width="50" height="50" relative="1" as="geometry">
            <mxPoint x="530" y="580" as="sourcePoint" />
            <mxPoint x="580" y="530" as="targetPoint" />
            <Array as="points">
              <mxPoint x="750" y="590" />
            </Array>
          </mxGeometry>
        </mxCell>
        <mxCell id="QrMQn8Wq6MuRv5G-C4Zi-33" value="&lt;div style=&quot;font-size: 6px;&quot;&gt;El timer aumenta en 1 segundo&amp;nbsp;&lt;/div&gt;&lt;div style=&quot;font-size: 6px;&quot;&gt;[El timer no llego a los 3 min y aun&lt;/div&gt;&lt;div style=&quot;font-size: 6px;&quot;&gt;no volvio la señal] / Sigue esperando&lt;/div&gt;&lt;div style=&quot;font-size: 6px;&quot;&gt;la señal de GPS&lt;/div&gt;" style="text;html=1;align=center;verticalAlign=middle;resizable=0;points=[];autosize=1;strokeColor=none;fillColor=none;fontSize=6;" parent="1" vertex="1">
          <mxGeometry x="725" y="595" width="120" height="40" as="geometry" />
        </mxCell>
        <mxCell id="QrMQn8Wq6MuRv5G-C4Zi-34" value="&lt;div style=&quot;font-size: 6px;&quot;&gt;El timer aumenta en 1 segundo&lt;/div&gt;&lt;div style=&quot;font-size: 6px;&quot;&gt;[El timer llego a los 3 min y aun&lt;/div&gt;&lt;div style=&quot;font-size: 6px;&quot;&gt;no volvio la señal] / Vuelve a la&amp;nbsp;&lt;/div&gt;&lt;div style=&quot;font-size: 6px;&quot;&gt;pantalla de busqueda&lt;/div&gt;" style="text;html=1;align=center;verticalAlign=middle;resizable=0;points=[];autosize=1;strokeColor=none;fillColor=none;fontSize=6;" parent="1" vertex="1">
          <mxGeometry x="630" y="510" width="110" height="40" as="geometry" />
        </mxCell>
        <mxCell id="QrMQn8Wq6MuRv5G-C4Zi-35" value="" style="endArrow=classic;html=1;rounded=0;exitX=0.5;exitY=0;exitDx=0;exitDy=0;entryX=0.873;entryY=1.006;entryDx=0;entryDy=0;entryPerimeter=0;" parent="1" source="QrMQn8Wq6MuRv5G-C4Zi-27" target="QrMQn8Wq6MuRv5G-C4Zi-3" edge="1">
          <mxGeometry width="50" height="50" relative="1" as="geometry">
            <mxPoint x="550" y="550" as="sourcePoint" />
            <mxPoint x="550" y="410" as="targetPoint" />
            <Array as="points">
              <mxPoint x="470" y="360" />
            </Array>
          </mxGeometry>
        </mxCell>
        <mxCell id="QrMQn8Wq6MuRv5G-C4Zi-36" value="" style="endArrow=classic;html=1;rounded=0;exitX=0;exitY=0.25;exitDx=0;exitDy=0;entryX=0;entryY=0.75;entryDx=0;entryDy=0;" parent="1" source="QrMQn8Wq6MuRv5G-C4Zi-25" target="QrMQn8Wq6MuRv5G-C4Zi-25" edge="1">
          <mxGeometry width="50" height="50" relative="1" as="geometry">
            <mxPoint x="410" y="530" as="sourcePoint" />
            <mxPoint x="310" y="590" as="targetPoint" />
            <Array as="points">
              <mxPoint x="340" y="590" />
            </Array>
          </mxGeometry>
        </mxCell>
        <mxCell id="QrMQn8Wq6MuRv5G-C4Zi-37" value="&lt;div style=&quot;font-size: 6px;&quot;&gt;&lt;span style=&quot;background-color: initial;&quot;&gt;Pasa un segundo en el timer [La señal es estable]&lt;/span&gt;&lt;/div&gt;&lt;div style=&quot;font-size: 6px;&quot;&gt;&lt;span style=&quot;background-color: initial;&quot;&gt;/ Se actualiza&amp;nbsp;&lt;/span&gt;&lt;span style=&quot;background-color: initial;&quot;&gt;la ubicacion geografica&lt;/span&gt;&lt;/div&gt;" style="text;html=1;align=center;verticalAlign=middle;resizable=0;points=[];autosize=1;strokeColor=none;fillColor=none;fontSize=6;" parent="1" vertex="1">
          <mxGeometry x="195" y="575" width="160" height="30" as="geometry" />
        </mxCell>
        <mxCell id="QrMQn8Wq6MuRv5G-C4Zi-38" value="" style="ellipse;whiteSpace=wrap;html=1;aspect=fixed;" parent="1" vertex="1">
          <mxGeometry x="413" y="690" width="25" height="25" as="geometry" />
        </mxCell>
        <mxCell id="QrMQn8Wq6MuRv5G-C4Zi-39" value="" style="ellipse;whiteSpace=wrap;html=1;aspect=fixed;fillColor=#000000;" parent="1" vertex="1">
          <mxGeometry x="420" y="697.5" width="10" height="10" as="geometry" />
        </mxCell>
        <mxCell id="QrMQn8Wq6MuRv5G-C4Zi-40" value="&lt;div style=&quot;font-size: 7px;&quot;&gt;Se termina la navegacion / Se&lt;/div&gt;&lt;div style=&quot;font-size: 7px;&quot;&gt;muestra un mensaje de &quot;destino alcanzado&quot;&lt;/div&gt;" style="text;html=1;align=center;verticalAlign=middle;resizable=0;points=[];autosize=1;strokeColor=none;fillColor=none;fontSize=7;" parent="1" vertex="1">
          <mxGeometry x="270" y="640" width="160" height="30" as="geometry" />
        </mxCell>
        <mxCell id="QrMQn8Wq6MuRv5G-C4Zi-41" value="" style="endArrow=classic;html=1;rounded=0;exitX=0.75;exitY=0;exitDx=0;exitDy=0;entryX=0.957;entryY=1.048;entryDx=0;entryDy=0;entryPerimeter=0;" parent="1" source="QrMQn8Wq6MuRv5G-C4Zi-25" target="QrMQn8Wq6MuRv5G-C4Zi-3" edge="1">
          <mxGeometry width="50" height="50" relative="1" as="geometry">
            <mxPoint x="510" y="420" as="sourcePoint" />
            <mxPoint x="560" y="370" as="targetPoint" />
            <Array as="points">
              <mxPoint x="590" y="360" />
              <mxPoint x="480" y="360" />
            </Array>
          </mxGeometry>
        </mxCell>
        <mxCell id="QrMQn8Wq6MuRv5G-C4Zi-42" value="&lt;div style=&quot;font-size: 5px;&quot;&gt;&lt;font style=&quot;font-size: 5px;&quot;&gt;&lt;span style=&quot;background-color: initial; font-size: 5px;&quot;&gt;Se presiona el boton &quot;Detener navegacion&quot;&lt;/span&gt;&lt;span style=&quot;background-color: initial; font-size: 5px;&quot;&gt;&amp;nbsp;/&amp;nbsp;&lt;/span&gt;&lt;/font&gt;&lt;/div&gt;&lt;div style=&quot;font-size: 5px;&quot;&gt;Retorna a la opcion &quot;ir a destino&quot;&lt;/div&gt;" style="text;html=1;align=left;verticalAlign=middle;resizable=0;points=[];autosize=1;strokeColor=none;fillColor=none;fontSize=5;" parent="1" vertex="1">
          <mxGeometry x="490" y="500" width="120" height="30" as="geometry" />
        </mxCell>
      </root>
    </mxGraphModel>
  </diagram>
</mxfile>
